<?xml version="1.0" encoding="utf-8"?>
<!-- Generator: Adobe Illustrator 26.1.0, SVG Export Plug-In . SVG Version: 6.00 Build 0)  -->
<svg version="1.1" id="Camada_1" xmlns="http://www.w3.org/2000/svg" xmlns:xlink="http://www.w3.org/1999/xlink" x="0px" y="0px"
	 viewBox="0 0 512 512" style="enable-background:new 0 0 512 512;" xml:space="preserve">
<style type="text/css">
	.st0{fill:#7E181A;}
</style>
<g>
	<g>
		<g>
			<path class="st0" d="M223.47,442.25c38.9-3.38,76.44-8.79,108.57-17.59c15.9-3.72,32.13-7.44,46.34-12.51
				c-14.21,1.69-30.1,3.72-44.31,5.41c-30.1,3.72-58.51,5.41-88.95,5.41c-28.41,0-56.82-1.69-85.23-5.41
				c-21.31-1.69-42.62-5.41-62.23-8.79c-10.49-1.69-21.31-3.72-32.13-5.41l0,0l0,0l216.47-368h-35.51L11.74,433.45
				c55.13,8.79,111.95,12.51,167.09,10.82C193.03,444.28,209.27,444.28,223.47,442.25z"/>
			<path class="st0" d="M289.09,38.74L77.69,397.94c10.82,1.69,19.62,3.72,30.44,5.41c60.21-101.47,120.75-204.63,180.95-305.76
				l195.5,332.48l17.59-30.44L289.09,38.74z"/>
			<path class="st0" d="M420.66,403.35c-21.31,10.49-51.41,21.31-87.26,28.41c-33.82,8.79-69.34,14.21-106.54,17.59
				c-14.21,1.69-30.1,1.69-46.34,3.72c-37.21,1.69-76.44,0-117.37-3.72c15.9,3.72,33.82,7.1,53.44,9.13
				c38.9,5.41,81.51,8.79,127.85,8.79c39.23,0,81.85-1.69,124.47-8.79c35.51-3.72,72.72-12.51,109.93-23.34L289.09,111.8
				l-17.93,30.1l151.19,256.04l1.69,3.72L420.66,403.35L420.66,403.35z"/>
		</g>
	</g>
</g>
</svg>
