<?xml version="1.0" encoding="utf-8"?>
<!-- Generator: Adobe Illustrator 26.1.0, SVG Export Plug-In . SVG Version: 6.00 Build 0)  -->
<svg version="1.1" id="Camada_1" xmlns="http://www.w3.org/2000/svg" xmlns:xlink="http://www.w3.org/1999/xlink" x="0px" y="0px"
	 viewBox="0 0 539.5 132.5" style="enable-background:new 0 0 539.5 132.5;" xml:space="preserve">
<style type="text/css">
	.st0{fill:#FFFFFF;}
</style>
<g>
	<path class="st0" d="M175.6,36.1h-8v-2.9h19.6v2.9h-8.1v23.6h-3.5V36.1z"/>
	<path class="st0" d="M188.9,46.6c0-2.2,0-4.2-0.2-5.9h3l0.2,3.8h0.1c0.9-2.6,3-4.2,5.3-4.2c0.4,0,0.6,0,0.9,0.1v3.3
		c-0.4-0.1-0.7-0.1-1.2-0.1c-2.4,0-4.2,1.8-4.6,4.4c-0.1,0.5-0.1,1.1-0.1,1.6v10.1h-3.5V46.6H188.9z"/>
	<path class="st0" d="M206.3,35.3c0,1.2-0.8,2.1-2.2,2.1c-1.3,0-2.1-0.9-2.1-2.1c0-1.2,0.9-2.2,2.2-2.2
		C205.5,33.2,206.3,34.1,206.3,35.3z M202.5,59.7v-19h3.5v19H202.5z"/>
	<path class="st0" d="M212.3,31.8h3.4v11.9h0.1c1.2-2.1,3.4-3.5,6.5-3.5c4.8,0,8,3.9,8,9.7c0,6.8-4.3,10.2-8.6,10.2
		c-2.7,0-4.9-1.1-6.4-3.5h-0.1l-0.2,3.1h-2.9c0.1-1.3,0.2-3.2,0.2-4.9V31.8z M215.7,52c0,0.4,0,0.9,0.2,1.3c0.6,2.4,2.7,4,5.2,4
		c3.7,0,5.8-2.9,5.8-7.3c0-3.8-2-7.1-5.7-7.1c-2.3,0-4.5,1.6-5.2,4.2c-0.1,0.4-0.2,0.9-0.2,1.5V52H215.7z"/>
	<path class="st0" d="M251.2,54.4c0,2,0,3.7,0.2,5.2h-3.1l-0.2-3.1H248c-0.9,1.5-2.9,3.5-6.3,3.5c-3,0-6.6-1.7-6.6-8.3v-11h3.5v10.5
		c0,3.6,1.1,6.1,4.2,6.1c2.3,0,3.9-1.6,4.6-3.2c0.2-0.5,0.3-1.1,0.3-1.8V40.7h3.5V54.4z"/>
	<path class="st0" d="M257.5,45.8c0-2,0-3.6-0.2-5.1h3.1l0.2,3.1h0.1c0.9-1.8,3.1-3.5,6.3-3.5c2.6,0,6.7,1.6,6.7,8.1v11.3h-3.5v-11
		c0-3.1-1.1-5.6-4.4-5.6c-2.2,0-4,1.6-4.6,3.5c-0.2,0.4-0.2,1-0.2,1.6v11.4h-3.5V45.8z"/>
	<path class="st0" d="M293.3,55.1c0,1.6,0.1,3.3,0.3,4.6h-3.1l-0.3-2.4h-0.1c-1.1,1.5-3.1,2.8-5.8,2.8c-3.8,0-5.8-2.7-5.8-5.5
		c0-4.6,4.1-7.1,11.4-7.1v-0.4c0-1.5-0.4-4.4-4.3-4.4c-1.8,0-3.7,0.5-5,1.4l-0.8-2.3c1.6-1,3.9-1.6,6.3-1.6c5.8,0,7.2,4,7.2,7.7
		L293.3,55.1L293.3,55.1z M290,50c-3.8-0.1-8,0.6-8,4.3c0,2.3,1.5,3.3,3.2,3.3c2.5,0,4.1-1.6,4.7-3.2c0.1-0.4,0.2-0.8,0.2-1.1V50
		H290z"/>
	<path class="st0" d="M299.5,31.8h3.5v27.9h-3.5V31.8z"/>
	<path class="st0" d="M335.9,31.8v23c0,1.7,0.1,3.6,0.2,4.9H333l-0.2-3.3h-0.1c-1,2.1-3.3,3.7-6.4,3.7c-4.6,0-8.2-3.9-8.2-9.7
		c0-6.3,3.9-10.2,8.5-10.2c2.9,0,4.9,1.4,5.7,2.9h0.1V31.8H335.9z M332.5,48.4c0-0.4,0-1-0.2-1.5c-0.5-2.2-2.4-4-5-4
		c-3.6,0-5.7,3.1-5.7,7.3c0,3.8,1.9,7,5.6,7c2.3,0,4.4-1.6,5.1-4.1c0.1-0.5,0.2-0.9,0.2-1.5V48.4z"/>
	<path class="st0" d="M344.2,50.8c0.1,4.7,3,6.6,6.5,6.6c2.5,0,4-0.4,5.3-1l0.6,2.5c-1.2,0.5-3.3,1.2-6.4,1.2
		c-5.8,0-9.3-3.9-9.3-9.6s3.4-10.2,8.9-10.2c6.2,0,7.9,5.4,7.9,8.9c0,0.7,0,1.2-0.1,1.6C357.6,50.8,344.2,50.8,344.2,50.8z
		 M354.3,48.3c0-2.2-0.9-5.6-4.8-5.6c-3.5,0-5,3.2-5.3,5.6H354.3z"/>
	<path class="st0" d="M378.2,33.2h3.5v17.7c0,7-3.5,9.2-8,9.2c-1.3,0-2.8-0.3-3.7-0.6l0.5-2.8c0.7,0.3,1.7,0.5,2.9,0.5
		c3.1,0,4.8-1.4,4.8-6.6L378.2,33.2L378.2,33.2z"/>
	<path class="st0" d="M403.8,54.4c0,2,0,3.7,0.2,5.2h-3.1l-0.2-3.1h-0.1c-0.9,1.5-2.9,3.5-6.3,3.5c-3,0-6.6-1.7-6.6-8.3v-11h3.5
		v10.5c0,3.6,1.1,6.1,4.2,6.1c2.3,0,3.9-1.6,4.6-3.2c0.2-0.5,0.3-1.1,0.3-1.8V40.7h3.5V54.4z"/>
	<path class="st0" d="M409.7,56.2c1.1,0.6,2.9,1.3,4.6,1.3c2.5,0,3.7-1.2,3.7-2.8s-1-2.5-3.5-3.5c-3.5-1.3-5.1-3.1-5.1-5.4
		c0-3.1,2.5-5.6,6.6-5.6c1.9,0,3.6,0.5,4.6,1.2l-0.8,2.5c-0.7-0.5-2.1-1.1-3.9-1.1c-2,0-3.1,1.2-3.1,2.6c0,1.6,1.1,2.3,3.6,3.3
		c3.3,1.2,5,2.9,5,5.7c0,3.4-2.6,5.7-7.1,5.7c-2.1,0-4-0.5-5.3-1.3L409.7,56.2z"/>
	<path class="st0" d="M430.5,36.1v4.6h4.9v2.6h-4.9v10.2c0,2.4,0.7,3.7,2.6,3.7c0.9,0,1.5-0.1,2-0.2l0.2,2.6
		c-0.7,0.2-1.7,0.5-3.1,0.5c-1.6,0-2.9-0.5-3.7-1.5c-0.9-1.1-1.3-2.7-1.3-5V43.3h-2.9v-2.6h2.9v-3.5L430.5,36.1z"/>
	<path class="st0" d="M443.8,35.3c0,1.2-0.8,2.1-2.2,2.1c-1.3,0-2.1-0.9-2.1-2.1c0-1.2,0.9-2.2,2.2-2.2
		C442.9,33.2,443.8,34.1,443.8,35.3z M439.9,59.7v-19h3.5v19H439.9z"/>
	<path class="st0" d="M463.3,59c-0.8,0.4-2.6,1.1-4.9,1.1l-1,1.6c1.5,0.3,2.7,1.3,2.7,2.9c0,2.4-2,3.3-4.1,3.3c-0.9,0-2-0.2-2.7-0.7
		l0.6-1.8c0.6,0.4,1.4,0.5,2.2,0.5c0.9,0,1.7-0.3,1.7-1.3s-1.2-1.5-3.1-1.6l1.6-3c-4.8-0.6-7.9-4.3-7.9-9.6c0-5.8,4-10.1,10.2-10.1
		c2,0,3.8,0.5,4.8,1l-0.8,2.6c-0.8-0.4-2.1-0.9-4-0.9c-4.4,0-6.7,3.2-6.7,7.2c0,4.4,2.8,7.1,6.6,7.1c2,0,3.3-0.5,4.2-0.9L463.3,59z"
		/>
	<path class="st0" d="M481.3,55.1c0,1.6,0.1,3.3,0.3,4.6h-3.1l-0.3-2.4h-0.1c-1.1,1.5-3.1,2.8-5.8,2.8c-3.8,0-5.8-2.7-5.8-5.5
		c0-4.6,4.1-7.1,11.4-7.1v-0.4c0-1.5-0.4-4.4-4.3-4.4c-1.8,0-3.7,0.5-5,1.4l-0.8-2.3c1.6-1,3.9-1.6,6.3-1.6c5.8,0,7.2,4,7.2,7.7
		L481.3,55.1L481.3,55.1z M477.9,50c-3.8-0.1-8,0.6-8,4.3c0,2.3,1.5,3.3,3.2,3.3c2.5,0,4.1-1.6,4.7-3.2c0.1-0.4,0.2-0.8,0.2-1.1V50
		H477.9z"/>
	<path class="st0" d="M514,31.8v23c0,1.7,0.1,3.6,0.2,4.9h-3.1l-0.2-3.3h-0.1c-1,2.1-3.3,3.7-6.4,3.7c-4.6,0-8.2-3.9-8.2-9.7
		c0-6.3,3.9-10.2,8.5-10.2c2.9,0,4.9,1.4,5.7,2.9h0.1V31.8H514z M510.6,48.4c0-0.4,0-1-0.2-1.5c-0.5-2.2-2.4-4-5-4
		c-3.6,0-5.7,3.1-5.7,7.3c0,3.8,1.9,7,5.6,7c2.3,0,4.4-1.6,5.1-4.1c0.1-0.5,0.2-0.9,0.2-1.5V48.4z"/>
	<path class="st0" d="M537.6,50c0,7-4.9,10.1-9.5,10.1c-5.1,0-9.1-3.8-9.1-9.8c0-6.3,4.2-10.1,9.4-10.1
		C533.9,40.3,537.6,44.2,537.6,50z M522.5,50.2c0,4.2,2.4,7.3,5.7,7.3s5.8-3.1,5.8-7.4c0-3.2-1.6-7.3-5.7-7.3
		C524.3,42.9,522.5,46.6,522.5,50.2z"/>
	<path class="st0" d="M184.3,94.4H174v9.5h11.5v2.9h-14.9V80.3h14.3v2.9H174v8.4h10.2v2.8H184.3z"/>
	<path class="st0" d="M189.3,103.3c1.1,0.6,2.9,1.3,4.6,1.3c2.5,0,3.7-1.2,3.7-2.8c0-1.6-1-2.5-3.5-3.5c-3.5-1.3-5.1-3.1-5.1-5.4
		c0-3.1,2.5-5.6,6.6-5.6c1.9,0,3.6,0.5,4.6,1.2l-0.8,2.5c-0.7-0.5-2.1-1.1-3.9-1.1c-2,0-3.1,1.2-3.1,2.6c0,1.6,1.1,2.3,3.6,3.3
		c3.3,1.2,5,2.9,5,5.7c0,3.4-2.6,5.7-7.1,5.7c-2.1,0-4-0.5-5.3-1.3L189.3,103.3z"/>
	<path class="st0" d="M209.5,83.2v4.6h4.9v2.6h-4.9v10.2c0,2.4,0.7,3.7,2.6,3.7c0.9,0,1.5-0.1,2-0.2l0.2,2.6
		c-0.7,0.2-1.7,0.5-3.1,0.5c-1.6,0-2.9-0.5-3.7-1.5c-0.9-1.1-1.3-2.7-1.3-5V90.4h-2.9v-2.6h2.9v-3.5L209.5,83.2z"/>
	<path class="st0" d="M231.7,102.2c0,1.6,0.1,3.3,0.3,4.6h-3.1l-0.3-2.4h-0.1c-1.1,1.5-3.1,2.8-5.8,2.8c-3.8,0-5.8-2.7-5.8-5.5
		c0-4.6,4.1-7.1,11.4-7.1v-0.4c0-1.5-0.4-4.4-4.3-4.4c-1.8,0-3.7,0.5-5,1.4l-0.8-2.3c1.6-1,3.9-1.6,6.3-1.6c5.8,0,7.2,4,7.2,7.7
		L231.7,102.2L231.7,102.2z M228.4,97.1c-3.8-0.1-8,0.6-8,4.3c0,2.3,1.5,3.3,3.2,3.3c2.5,0,4.1-1.6,4.7-3.2c0.1-0.4,0.2-0.8,0.2-1.1
		L228.4,97.1L228.4,97.1z"/>
	<path class="st0" d="M253.6,78.9v23c0,1.7,0.1,3.6,0.2,4.9h-3.1l-0.2-3.3h-0.1c-1,2.1-3.3,3.7-6.4,3.7c-4.6,0-8.2-3.9-8.2-9.7
		c0-6.3,3.9-10.2,8.5-10.2c2.9,0,4.9,1.4,5.7,2.9h0.1V78.9H253.6z M250.2,95.5c0-0.4,0-1-0.2-1.5c-0.5-2.2-2.4-4-5-4
		c-3.6,0-5.7,3.1-5.7,7.3c0,3.8,1.9,7,5.6,7c2.3,0,4.4-1.6,5.1-4.1c0.1-0.5,0.2-0.9,0.2-1.5L250.2,95.5L250.2,95.5z"/>
	<path class="st0" d="M276.6,97.1c0,7-4.9,10.1-9.5,10.1c-5.1,0-9.1-3.8-9.1-9.8c0-6.3,4.2-10.1,9.4-10.1
		C272.9,87.4,276.6,91.3,276.6,97.1z M261.6,97.3c0,4.2,2.4,7.3,5.7,7.3c3.3,0,5.8-3.1,5.8-7.4c0-3.2-1.6-7.3-5.7-7.3
		C263.3,90,261.6,93.7,261.6,97.3z"/>
	<path class="st0" d="M304.1,78.9v23c0,1.7,0.1,3.6,0.2,4.9h-3.1l-0.2-3.3h-0.1c-1,2.1-3.3,3.7-6.4,3.7c-4.6,0-8.2-3.9-8.2-9.7
		c0-6.3,3.9-10.2,8.5-10.2c2.9,0,4.9,1.4,5.7,2.9h0.1V78.9H304.1z M300.6,95.5c0-0.4,0-1-0.2-1.5c-0.5-2.2-2.4-4-5-4
		c-3.6,0-5.7,3.1-5.7,7.3c0,3.8,1.9,7,5.6,7c2.3,0,4.4-1.6,5.1-4.1c0.1-0.5,0.2-0.9,0.2-1.5V95.5z"/>
	<path class="st0" d="M311.7,97.9c0.1,4.7,3,6.6,6.5,6.6c2.5,0,4-0.4,5.3-1l0.6,2.5c-1.2,0.5-3.3,1.2-6.4,1.2
		c-5.8,0-9.3-3.9-9.3-9.6s3.4-10.2,8.9-10.2c6.2,0,7.9,5.4,7.9,8.9c0,0.7,0,1.2-0.1,1.6H311.7z M321.9,95.4c0-2.2-0.9-5.6-4.8-5.6
		c-3.5,0-5,3.2-5.3,5.6H321.9z"/>
	<path class="st0" d="M358.6,95.1c-0.2-3.7-0.4-8.2-0.4-11.4h-0.1c-0.9,3.1-2,6.4-3.3,10.1l-4.7,12.8h-2.6L343.2,94
		c-1.3-3.8-2.3-7.1-3-10.3h-0.1c-0.1,3.3-0.3,7.7-0.5,11.7l-0.7,11.3h-3.3l1.8-26.5h4.4l4.5,12.8c1.1,3.3,2,6.2,2.7,8.9h0.1
		c0.7-2.7,1.6-5.6,2.8-8.9l4.7-12.8h4.4l1.6,26.5h-3.4L358.6,95.1z"/>
	<path class="st0" d="M372.1,82.4c0,1.2-0.8,2.1-2.2,2.1c-1.3,0-2.1-0.9-2.1-2.1s0.9-2.2,2.2-2.2C371.2,80.3,372.1,81.2,372.1,82.4z
		 M368.2,106.8v-19h3.5v19H368.2z"/>
	<path class="st0" d="M377.4,92.9c0-2,0-3.6-0.2-5.1h3.1l0.2,3.1h0.1c0.9-1.8,3.1-3.5,6.3-3.5c2.6,0,6.7,1.6,6.7,8.1v11.3h-3.5v-11
		c0-3.1-1.1-5.6-4.4-5.6c-2.2,0-4,1.6-4.6,3.5c-0.2,0.4-0.2,1-0.2,1.6v11.4h-3.5V92.9z"/>
	<path class="st0" d="M412.6,102.2c0,1.6,0.1,3.3,0.3,4.6h-3.1l-0.3-2.4h-0.1c-1.1,1.5-3.1,2.8-5.8,2.8c-3.8,0-5.8-2.7-5.8-5.5
		c0-4.6,4.1-7.1,11.4-7.1v-0.4c0-1.5-0.4-4.4-4.3-4.4c-1.8,0-3.7,0.5-5,1.4l-0.8-2.3c1.6-1,3.9-1.6,6.3-1.6c5.8,0,7.2,4,7.2,7.7
		L412.6,102.2L412.6,102.2z M409.2,97.1c-3.8-0.1-8,0.6-8,4.3c0,2.3,1.5,3.3,3.2,3.3c2.5,0,4.1-1.6,4.7-3.2c0.1-0.4,0.2-0.8,0.2-1.1
		v-3.3H409.2z"/>
	<path class="st0" d="M417.7,103.3c1.1,0.6,2.9,1.3,4.6,1.3c2.5,0,3.7-1.2,3.7-2.8c0-1.6-1-2.5-3.5-3.5c-3.5-1.3-5.1-3.1-5.1-5.4
		c0-3.1,2.5-5.6,6.6-5.6c1.9,0,3.6,0.5,4.6,1.2l-0.8,2.5c-0.7-0.5-2.1-1.1-3.9-1.1c-2,0-3.1,1.2-3.1,2.6c0,1.6,1.1,2.3,3.6,3.3
		c3.3,1.2,5,2.9,5,5.7c0,3.4-2.6,5.7-7.1,5.7c-2.1,0-4-0.5-5.3-1.3L417.7,103.3z"/>
	<path class="st0" d="M460.7,105.6c-1.5,0.6-4.6,1.5-8.2,1.5c-4,0-7.3-1-9.9-3.5c-2.3-2.2-3.7-5.7-3.7-9.9c0-7.9,5.5-13.7,14.3-13.7
		c3.1,0,5.5,0.7,6.6,1.2l-0.9,2.8c-1.4-0.7-3.2-1.1-5.8-1.1c-6.4,0-10.6,4-10.6,10.6c0,6.7,4,10.7,10.2,10.7c2.2,0,3.8-0.3,4.6-0.7
		v-7.9H452v-2.7h8.7V105.6z"/>
	<path class="st0" d="M467.9,97.9c0.1,4.7,3,6.6,6.5,6.6c2.5,0,4-0.4,5.3-1l0.6,2.5c-1.2,0.5-3.3,1.2-6.4,1.2
		c-5.8,0-9.3-3.9-9.3-9.6s3.4-10.2,8.9-10.2c6.2,0,7.9,5.4,7.9,8.9c0,0.7,0,1.2-0.1,1.6H467.9z M478,95.4c0-2.2-0.9-5.6-4.8-5.6
		c-3.5,0-5,3.2-5.3,5.6H478z"/>
	<path class="st0" d="M485.6,93.7c0-2.2,0-4.2-0.2-5.9h3l0.2,3.8h0.1c0.9-2.6,3-4.2,5.3-4.2c0.4,0,0.6,0,0.9,0.1v3.3
		c-0.4-0.1-0.7-0.1-1.2-0.1c-2.4,0-4.2,1.8-4.6,4.4c-0.1,0.5-0.1,1.1-0.1,1.6v10.1h-3.5V93.7H485.6z"/>
	<path class="st0" d="M511.6,102.2c0,1.6,0.1,3.3,0.3,4.6h-3.1l-0.3-2.4h-0.1c-1.1,1.5-3.1,2.8-5.8,2.8c-3.8,0-5.8-2.7-5.8-5.5
		c0-4.6,4.1-7.1,11.4-7.1v-0.4c0-1.5-0.4-4.4-4.3-4.4c-1.8,0-3.7,0.5-5,1.4l-0.8-2.3c1.6-1,3.9-1.6,6.3-1.6c5.8,0,7.2,4,7.2,7.7
		L511.6,102.2L511.6,102.2z M508.3,97.1c-3.8-0.1-8,0.6-8,4.3c0,2.3,1.5,3.3,3.2,3.3c2.5,0,4.1-1.6,4.7-3.2c0.1-0.4,0.2-0.8,0.2-1.1
		v-3.3H508.3z"/>
	<path class="st0" d="M521,82.4c0,1.2-0.8,2.1-2.2,2.1c-1.3,0-2.1-0.9-2.1-2.1s0.9-2.2,2.2-2.2C520.2,80.3,521,81.2,521,82.4z
		 M517.2,106.8v-19h3.5v19H517.2z"/>
	<path class="st0" d="M525.9,103.3c1.1,0.6,2.9,1.3,4.6,1.3c2.5,0,3.7-1.2,3.7-2.8c0-1.6-1-2.5-3.5-3.5c-3.5-1.3-5.1-3.1-5.1-5.4
		c0-3.1,2.5-5.6,6.6-5.6c1.9,0,3.6,0.5,4.6,1.2L536,91c-0.7-0.5-2.1-1.1-3.9-1.1c-2,0-3.1,1.2-3.1,2.6c0,1.6,1.1,2.3,3.6,3.3
		c3.3,1.2,5,2.9,5,5.7c0,3.4-2.6,5.7-7.1,5.7c-2.1,0-4-0.5-5.3-1.3L525.9,103.3z"/>
</g>
<g>
	<g>
		<g>
			<path class="st0" d="M64.6,123c11.5-1,22.6-2.6,32.1-5.2c4.7-1.1,9.5-2.2,13.7-3.7c-4.2,0.5-8.9,1.1-13.1,1.6
				c-8.9,1.1-17.3,1.6-26.3,1.6c-8.4,0-16.8-0.5-25.2-1.6c-6.3-0.5-12.6-1.6-18.4-2.6c-3.1-0.5-6.3-1.1-9.5-1.6l0,0l0,0l64-108.8
				H71.4L2,120.4c16.3,2.6,33.1,3.7,49.4,3.2C55.6,123.6,60.4,123.6,64.6,123z"/>
			<path class="st0" d="M84,3.7L21.5,109.9c3.2,0.5,5.8,1.1,9,1.6C48.3,81.5,66.2,51,84,21.1l57.8,98.3l5.2-9L84,3.7z"/>
			<path class="st0" d="M122.9,111.5c-6.3,3.1-15.2,6.3-25.8,8.4c-10,2.6-20.5,4.2-31.5,5.2c-4.2,0.5-8.9,0.5-13.7,1.1
				c-11,0.5-22.6,0-34.7-1.1c4.7,1.1,10,2.1,15.8,2.7c11.5,1.6,24.1,2.6,37.8,2.6c11.6,0,24.2-0.5,36.8-2.6
				c10.5-1.1,21.5-3.7,32.5-6.9L84,25.3l-5.3,8.9l44.7,75.7l0.5,1.1L122.9,111.5L122.9,111.5z"/>
		</g>
	</g>
</g>
</svg>
